<svg width="16" height="17" viewBox="0 0 16 17" fill="none" xmlns="http://www.w3.org/2000/svg">
<g clip-path="url(#clip0_956_415)">
<path d="M10.4406 2.25702C10.8351 2.72174 11.0196 3.36739 11.0168 4.19615L11.0115 4.42672L11.0004 4.60504L11.0771 4.60604C11.8943 4.60604 12.6149 5.10211 12.922 5.84972L12.9778 6.00253L13.022 6.1616L13.0513 6.32007L13.9802 12.8956C14.1271 13.9357 13.4421 14.9015 12.4162 15.1228L12.2673 15.1492L12.1282 15.1627L12.006 15.1667H3.99349C2.9424 15.1667 2.08127 14.3538 2.00543 13.3076L2 13.1566L2.00612 13.0171L2.01927 12.8956L2.94815 6.32007C3.07 5.45748 3.73571 4.78254 4.59747 4.63442L4.76127 4.6129L4.92206 4.60604H5.0499L5.04026 4.435C5.00898 3.66607 5.12696 3.03907 5.40946 2.55341L5.50974 2.39676L5.61158 2.26343C6.82365 0.801595 9.20605 0.802693 10.4406 2.25702ZM9.24286 6.1991H6.80843L6.94007 6.6715L7.03273 6.9782L7.11054 7.02859C7.37809 7.22373 7.5575 7.52537 7.59406 7.86458L7.60097 7.99341C7.60097 8.65369 7.06537 9.18895 6.40469 9.18895C5.744 9.18895 5.20841 8.65369 5.20841 7.99341C5.20841 7.68081 5.32961 7.39069 5.53319 7.17429L5.56031 7.14657L5.47735 6.86115L5.37844 6.49351L5.3061 6.1991L4.92237 6.2001C4.76746 6.2001 4.62941 6.28946 4.5683 6.40505L4.54443 6.46474L4.52753 6.5429L3.59865 13.1184C3.59604 13.1368 3.59473 13.1555 3.59473 13.1741C3.59473 13.3503 3.71003 13.5019 3.85042 13.5517L3.91185 13.5666L3.99349 13.5726L12.0339 13.5716L12.0617 13.5687C12.2327 13.5446 12.3649 13.4142 12.3982 13.2718L12.4062 13.2L12.4008 13.1184L11.4719 6.5429C11.4503 6.38961 11.3424 6.26549 11.2194 6.22117L11.1569 6.2059L11.0766 6.2001L10.7432 6.1991L10.6849 6.44851L10.6262 6.67604L10.48 7.1924L10.5364 7.25599C10.6709 7.42736 10.7581 7.63481 10.7834 7.85786L10.791 7.99341C10.791 8.65369 10.2555 9.18895 9.59477 9.18895C8.93408 9.18895 8.39849 8.65369 8.39849 7.99341C8.39849 7.56167 8.62916 7.17686 8.98191 6.96639L9.03451 6.93834L9.12474 6.63503L9.24286 6.1991ZM6.74231 3.17307C6.55899 3.39416 6.46897 3.81456 6.50113 4.42754L6.51335 4.60504H9.53695L9.55029 4.42153C9.58094 3.86641 9.51354 3.47303 9.37095 3.24818L9.32067 3.17948C8.67152 2.4148 7.3723 2.41326 6.74231 3.17307Z" fill="white"/>
</g>
<defs>
<clipPath id="clip0_956_415">
<rect width="16" height="16" fill="white" transform="translate(0 0.5)"/>
</clipPath>
</defs>
</svg>