<svg width="17" height="16" viewBox="0 0 17 16" fill="none" xmlns="http://www.w3.org/2000/svg">
<g clip-path="url(#clip0_973_490)">
<path d="M10.9406 1.75703C11.3351 2.22174 11.5196 2.86739 11.5168 3.69616L11.5115 3.92672L11.5004 4.10505L11.5771 4.10604C12.3943 4.10604 13.1149 4.60211 13.422 5.34973L13.4778 5.50253L13.522 5.66161L13.5513 5.82007L14.4802 12.3956C14.6271 13.4357 13.9421 14.4015 12.9162 14.6228L12.7673 14.6492L12.6282 14.6627L12.506 14.6667H4.49349C3.4424 14.6667 2.58127 13.8538 2.50543 12.8076L2.5 12.6566L2.50612 12.5171L2.51927 12.3956L3.44815 5.82007C3.57 4.95749 4.23571 4.28255 5.09747 4.13442L5.26127 4.1129L5.42206 4.10604H5.5499L5.54026 3.935C5.50898 3.16607 5.62696 2.53907 5.90946 2.05342L6.00974 1.89677L6.11158 1.76344C7.32365 0.301599 9.70605 0.302697 10.9406 1.75703ZM9.74286 5.6991H7.30843L7.44007 6.17151L7.53273 6.4782L7.61054 6.52859C7.87809 6.72374 8.0575 7.02537 8.09406 7.36458L8.10097 7.49341C8.10097 8.15369 7.56537 8.68896 6.90469 8.68896C6.244 8.68896 5.70841 8.15369 5.70841 7.49341C5.70841 7.18081 5.82961 6.89069 6.03319 6.67429L6.06031 6.64657L5.97735 6.36115L5.87844 5.99351L5.8061 5.6991L5.42237 5.7001C5.26746 5.7001 5.12941 5.78946 5.0683 5.90505L5.04443 5.96474L5.02753 6.04291L4.09865 12.6184C4.09604 12.6368 4.09473 12.6555 4.09473 12.6741C4.09473 12.8503 4.21003 13.002 4.35042 13.0517L4.41185 13.0666L4.49349 13.0726L12.5339 13.0716L12.5617 13.0687C12.7327 13.0446 12.8649 12.9142 12.8982 12.7718L12.9062 12.7L12.9008 12.6184L11.9719 6.04291C11.9503 5.88961 11.8424 5.76549 11.7194 5.72118L11.6569 5.7059L11.5766 5.7001L11.2432 5.6991L11.1849 5.94852L11.1262 6.17605L10.98 6.6924L11.0364 6.75599C11.1709 6.92737 11.2581 7.13481 11.2834 7.35787L11.291 7.49341C11.291 8.15369 10.7555 8.68896 10.0948 8.68896C9.43408 8.68896 8.89849 8.15369 8.89849 7.49341C8.89849 7.06168 9.12916 6.67686 9.48191 6.4664L9.53451 6.43835L9.62474 6.13503L9.74286 5.6991ZM7.24231 2.67307C7.05899 2.89416 6.96897 3.31456 7.00113 3.92754L7.01335 4.10505H10.0369L10.0503 3.92154C10.0809 3.36641 10.0135 2.97304 9.87095 2.74818L9.82067 2.67948C9.17152 1.9148 7.8723 1.91326 7.24231 2.67307Z" fill="#1C1C1C"/>
</g>
<defs>
<clipPath id="clip0_973_490">
<rect width="16" height="16" fill="white" transform="translate(0.5)"/>
</clipPath>
</defs>
</svg>
