<svg width="72" height="72" viewBox="0 0 72 72" fill="none" xmlns="http://www.w3.org/2000/svg">
<mask id="mask0_956_521" style="mask-type:alpha" maskUnits="userSpaceOnUse" x="0" y="0" width="72" height="72">
<path d="M36 0C55.8499 0 72 16.1501 72 36C72 55.8499 55.8499 72 36 72C16.1501 72 0 55.8499 0 36C0 16.1501 16.1501 0 36 0ZM36 3.59706C18.1321 3.59706 3.59706 18.1321 3.59706 36C3.59706 53.8679 18.1321 68.4029 36 68.4029C53.8679 68.4029 68.4029 53.8679 68.4029 36C68.4029 18.1321 53.8679 3.59706 36 3.59706ZM48.3775 24.4902C48.9511 24.4506 49.5031 24.6366 49.9351 25.0122C50.3671 25.3866 50.6287 25.9086 50.6683 26.4798C50.7091 27.051 50.5231 27.6054 50.1451 28.0398L33.6439 47.2878C33.2383 47.7618 32.6587 48.0282 32.0155 48.0378C31.4143 48.0378 30.8371 47.7834 30.4315 47.3394L22.4347 38.5902C21.6355 37.7178 21.6967 36.357 22.5703 35.559C22.9651 35.1966 23.4787 34.9974 24.0163 34.9974C24.6187 34.9974 25.1959 35.2518 25.6003 35.6946L31.9639 42.657L46.9099 25.2234C47.2843 24.7914 47.8051 24.531 48.3775 24.4902Z" fill="white"/>
</mask>
<g mask="url(#mask0_956_521)">
<path d="M36 0C55.8499 0 72 16.1501 72 36C72 55.8499 55.8499 72 36 72C16.1501 72 0 55.8499 0 36C0 16.1501 16.1501 0 36 0ZM36 3.59706C18.1321 3.59706 3.59706 18.1321 3.59706 36C3.59706 53.8679 18.1321 68.4029 36 68.4029C53.8679 68.4029 68.4029 53.8679 68.4029 36C68.4029 18.1321 53.8679 3.59706 36 3.59706ZM48.3775 24.4902C48.9511 24.4506 49.5031 24.6366 49.9351 25.0122C50.3671 25.3866 50.6287 25.9086 50.6683 26.4798C50.7091 27.051 50.5231 27.6054 50.1451 28.0398L33.6439 47.2878C33.2383 47.7618 32.6587 48.0282 32.0155 48.0378C31.4143 48.0378 30.8371 47.7834 30.4315 47.3394L22.4347 38.5902C21.6355 37.7178 21.6967 36.357 22.5703 35.559C22.9651 35.1966 23.4787 34.9974 24.0163 34.9974C24.6187 34.9974 25.1959 35.2518 25.6003 35.6946L31.9639 42.657L46.9099 25.2234C47.2843 24.7914 47.8051 24.531 48.3775 24.4902Z" fill="#1C1C1C"/>
</g>
</svg>