<svg width="13" height="14" viewBox="0 0 13 14" fill="none" xmlns="http://www.w3.org/2000/svg">
<path d="M7.83333 5H5.16667C4.8 5 4.5 4.7 4.5 4.33333C4.5 3.96666 4.8 3.66666 5.16667 3.66666H7.83333C8.2 3.66666 8.5 3.96666 8.5 4.33333C8.5 4.7 8.2 5 7.83333 5Z" fill="#1C1C1C"/>
<path d="M7.83333 7H5.16667C4.8 7 4.5 6.7 4.5 6.33333C4.5 5.96666 4.8 5.66666 5.16667 5.66666H7.83333C8.2 5.66666 8.5 5.96666 8.5 6.33333C8.5 6.7 8.2 7 7.83333 7Z" fill="#1C1C1C"/>
<path d="M11.5 1.33333L10.5 0.333332L9.5 1.33333L8.5 0.333332L7.5 1.33333L6.5 0.333332L5.5 1.33333L4.5 0.333332L3.5 1.33333L2.5 0.333332V9.66667H1.16667C0.8 9.66667 0.5 9.96667 0.5 10.3333V11.6667C0.5 12.7733 1.39333 13.6667 2.5 13.6667H10.5C11.6067 13.6667 12.5 12.7733 12.5 11.6667V0.333332L11.5 1.33333ZM8.5 12.3333H2.5C2.13333 12.3333 1.83333 12.0333 1.83333 11.6667V11H3.83333H6.5H8.5V12.3333ZM11.1667 11.6667C11.1667 12.0333 10.8667 12.3333 10.5 12.3333C10.1333 12.3333 9.83333 12.0333 9.83333 11.6667V10.3333C9.83333 9.96667 9.53333 9.66667 9.16667 9.66667H7.83333H6.5H3.83333V2.33333H11.1667V11.6667Z" fill="#1C1C1C"/>
<path d="M9.83329 5C10.2015 5 10.5 4.70152 10.5 4.33333C10.5 3.96514 10.2015 3.66666 9.83329 3.66666C9.4651 3.66666 9.16663 3.96514 9.16663 4.33333C9.16663 4.70152 9.4651 5 9.83329 5Z" fill="#1C1C1C"/>
<path d="M9.83329 7C10.2015 7 10.5 6.70152 10.5 6.33333C10.5 5.96514 10.2015 5.66666 9.83329 5.66666C9.4651 5.66666 9.16663 5.96514 9.16663 6.33333C9.16663 6.70152 9.4651 7 9.83329 7Z" fill="#1C1C1C"/>
</svg>
