<svg width="15" height="12" viewBox="0 0 15 12" fill="none" xmlns="http://www.w3.org/2000/svg">
<path d="M12.8333 3.33333H10.8333V0.666668H1.49996C0.766626 0.666668 0.166626 1.26667 0.166626 2V9.33333H1.49996C1.49996 10.44 2.39329 11.3333 3.49996 11.3333C4.60663 11.3333 5.49996 10.44 5.49996 9.33333H9.49996C9.49996 10.44 10.3933 11.3333 11.5 11.3333C12.6066 11.3333 13.5 10.44 13.5 9.33333H14.8333V6L12.8333 3.33333ZM12.5 4.33333L13.8066 6H10.8333V4.33333H12.5ZM3.49996 10C3.13329 10 2.83329 9.7 2.83329 9.33333C2.83329 8.96667 3.13329 8.66667 3.49996 8.66667C3.86663 8.66667 4.16663 8.96667 4.16663 9.33333C4.16663 9.7 3.86663 10 3.49996 10ZM4.97996 8C4.61329 7.59333 4.09329 7.33333 3.49996 7.33333C2.90663 7.33333 2.38663 7.59333 2.01996 8H1.49996V2H9.49996V8H4.97996ZM11.5 10C11.1333 10 10.8333 9.7 10.8333 9.33333C10.8333 8.96667 11.1333 8.66667 11.5 8.66667C11.8666 8.66667 12.1666 8.96667 12.1666 9.33333C12.1666 9.7 11.8666 10 11.5 10Z" fill="#1C1C1C"/>
</svg>
